<mxfile host="app.diagrams.net" modified="2023-12-10T16:39:29.328Z" agent="Mozilla/5.0 (Windows NT 10.0; Win64; x64) AppleWebKit/537.36 (KHTML, like Gecko) Chrome/120.0.0.0 Safari/537.36" etag="1dnQgIrUxaoisY3iJuak" version="22.1.7" type="github">
  <diagram name="Page-1" id="XXb1IejKNrJXjLM5Afj6">
    <mxGraphModel dx="2867" dy="1204" grid="1" gridSize="10" guides="1" tooltips="1" connect="1" arrows="1" fold="1" page="1" pageScale="1" pageWidth="3300" pageHeight="4681" math="0" shadow="0">
      <root>
        <mxCell id="0" />
        <mxCell id="1" parent="0" />
        <mxCell id="Bg_qymxzV5IfsE4DtpFk-2" value="&lt;font style=&quot;font-size: 24px;&quot;&gt;1&lt;/font&gt;" style="endArrow=classic;html=1;rounded=0;" edge="1" parent="1">
          <mxGeometry width="50" height="50" relative="1" as="geometry">
            <mxPoint x="120" y="848.75" as="sourcePoint" />
            <mxPoint x="210" y="848.75" as="targetPoint" />
          </mxGeometry>
        </mxCell>
        <mxCell id="Bg_qymxzV5IfsE4DtpFk-1" value="&lt;font style=&quot;font-size: 48px;&quot;&gt;1&lt;/font&gt;" style="ellipse;whiteSpace=wrap;html=1;aspect=fixed;" vertex="1" parent="1">
          <mxGeometry x="40" y="810" width="80" height="80" as="geometry" />
        </mxCell>
        <mxCell id="Bg_qymxzV5IfsE4DtpFk-44" value="&lt;font style=&quot;font-size: 24px;&quot;&gt;7&lt;/font&gt;" style="edgeStyle=orthogonalEdgeStyle;rounded=0;orthogonalLoop=1;jettySize=auto;html=1;" edge="1" parent="1" source="Bg_qymxzV5IfsE4DtpFk-3" target="Bg_qymxzV5IfsE4DtpFk-39">
          <mxGeometry relative="1" as="geometry" />
        </mxCell>
        <mxCell id="Bg_qymxzV5IfsE4DtpFk-117" value="&lt;font style=&quot;font-size: 24px;&quot;&gt;3&lt;/font&gt;" style="edgeStyle=orthogonalEdgeStyle;rounded=0;orthogonalLoop=1;jettySize=auto;html=1;entryX=0;entryY=0.5;entryDx=0;entryDy=0;" edge="1" parent="1" source="Bg_qymxzV5IfsE4DtpFk-3" target="Bg_qymxzV5IfsE4DtpFk-41">
          <mxGeometry relative="1" as="geometry">
            <Array as="points">
              <mxPoint x="260" y="580" />
            </Array>
          </mxGeometry>
        </mxCell>
        <mxCell id="Bg_qymxzV5IfsE4DtpFk-118" value="&lt;font style=&quot;font-size: 24px;&quot;&gt;5&lt;/font&gt;" style="edgeStyle=orthogonalEdgeStyle;rounded=0;orthogonalLoop=1;jettySize=auto;html=1;exitX=1;exitY=0;exitDx=0;exitDy=0;entryX=0;entryY=0.5;entryDx=0;entryDy=0;" edge="1" parent="1" source="Bg_qymxzV5IfsE4DtpFk-3" target="Bg_qymxzV5IfsE4DtpFk-40">
          <mxGeometry relative="1" as="geometry" />
        </mxCell>
        <mxCell id="Bg_qymxzV5IfsE4DtpFk-119" value="&lt;font style=&quot;font-size: 24px;&quot;&gt;1&lt;/font&gt;" style="edgeStyle=orthogonalEdgeStyle;rounded=0;orthogonalLoop=1;jettySize=auto;html=1;exitX=1;exitY=1;exitDx=0;exitDy=0;entryX=0;entryY=0.5;entryDx=0;entryDy=0;" edge="1" parent="1" source="Bg_qymxzV5IfsE4DtpFk-3" target="Bg_qymxzV5IfsE4DtpFk-38">
          <mxGeometry relative="1" as="geometry" />
        </mxCell>
        <mxCell id="Bg_qymxzV5IfsE4DtpFk-120" value="&lt;font style=&quot;font-size: 24px;&quot;&gt;2&lt;/font&gt;" style="edgeStyle=orthogonalEdgeStyle;rounded=0;orthogonalLoop=1;jettySize=auto;html=1;exitX=0.5;exitY=1;exitDx=0;exitDy=0;entryX=0;entryY=0.5;entryDx=0;entryDy=0;" edge="1" parent="1" source="Bg_qymxzV5IfsE4DtpFk-3" target="Bg_qymxzV5IfsE4DtpFk-37">
          <mxGeometry relative="1" as="geometry" />
        </mxCell>
        <mxCell id="Bg_qymxzV5IfsE4DtpFk-3" value="&lt;font style=&quot;font-size: 48px;&quot;&gt;2&lt;/font&gt;" style="ellipse;whiteSpace=wrap;html=1;aspect=fixed;" vertex="1" parent="1">
          <mxGeometry x="210" y="810" width="80" height="80" as="geometry" />
        </mxCell>
        <mxCell id="Bg_qymxzV5IfsE4DtpFk-140" value="&lt;font style=&quot;font-size: 24px;&quot;&gt;1&lt;/font&gt;" style="edgeStyle=orthogonalEdgeStyle;rounded=0;orthogonalLoop=1;jettySize=auto;html=1;exitX=1;exitY=0.5;exitDx=0;exitDy=0;entryX=0;entryY=0.5;entryDx=0;entryDy=0;" edge="1" parent="1" source="Bg_qymxzV5IfsE4DtpFk-5" target="Bg_qymxzV5IfsE4DtpFk-139">
          <mxGeometry relative="1" as="geometry" />
        </mxCell>
        <mxCell id="Bg_qymxzV5IfsE4DtpFk-5" value="&lt;span style=&quot;font-size: 48px;&quot;&gt;25&lt;/span&gt;" style="ellipse;whiteSpace=wrap;html=1;aspect=fixed;" vertex="1" parent="1">
          <mxGeometry x="2420" y="800" width="80" height="80" as="geometry" />
        </mxCell>
        <mxCell id="Bg_qymxzV5IfsE4DtpFk-6" value="&lt;font style=&quot;font-size: 48px;&quot;&gt;16&lt;/font&gt;" style="ellipse;whiteSpace=wrap;html=1;aspect=fixed;" vertex="1" parent="1">
          <mxGeometry x="1770" y="540" width="80" height="80" as="geometry" />
        </mxCell>
        <mxCell id="Bg_qymxzV5IfsE4DtpFk-112" value="&lt;font style=&quot;font-size: 24px;&quot;&gt;3&lt;/font&gt;" style="edgeStyle=orthogonalEdgeStyle;rounded=0;orthogonalLoop=1;jettySize=auto;html=1;entryX=0;entryY=0.5;entryDx=0;entryDy=0;" edge="1" parent="1" source="Bg_qymxzV5IfsE4DtpFk-7" target="Bg_qymxzV5IfsE4DtpFk-5">
          <mxGeometry relative="1" as="geometry" />
        </mxCell>
        <mxCell id="Bg_qymxzV5IfsE4DtpFk-7" value="&lt;font style=&quot;font-size: 48px;&quot;&gt;24&lt;/font&gt;" style="ellipse;whiteSpace=wrap;html=1;aspect=fixed;" vertex="1" parent="1">
          <mxGeometry x="2240" y="800" width="80" height="80" as="geometry" />
        </mxCell>
        <mxCell id="Bg_qymxzV5IfsE4DtpFk-111" value="&lt;font style=&quot;font-size: 24px;&quot;&gt;1&lt;/font&gt;" style="edgeStyle=orthogonalEdgeStyle;rounded=0;orthogonalLoop=1;jettySize=auto;html=1;entryX=0;entryY=0.5;entryDx=0;entryDy=0;" edge="1" parent="1" source="Bg_qymxzV5IfsE4DtpFk-8" target="Bg_qymxzV5IfsE4DtpFk-7">
          <mxGeometry relative="1" as="geometry" />
        </mxCell>
        <mxCell id="Bg_qymxzV5IfsE4DtpFk-8" value="&lt;span style=&quot;font-size: 48px;&quot;&gt;23&lt;/span&gt;" style="ellipse;whiteSpace=wrap;html=1;aspect=fixed;" vertex="1" parent="1">
          <mxGeometry x="1980" y="810" width="80" height="80" as="geometry" />
        </mxCell>
        <mxCell id="Bg_qymxzV5IfsE4DtpFk-106" value="&lt;font style=&quot;font-size: 24px;&quot;&gt;1&lt;/font&gt;" style="edgeStyle=orthogonalEdgeStyle;rounded=0;orthogonalLoop=1;jettySize=auto;html=1;entryX=0;entryY=0;entryDx=0;entryDy=0;" edge="1" parent="1" source="Bg_qymxzV5IfsE4DtpFk-9" target="Bg_qymxzV5IfsE4DtpFk-7">
          <mxGeometry relative="1" as="geometry" />
        </mxCell>
        <mxCell id="Bg_qymxzV5IfsE4DtpFk-9" value="&lt;span style=&quot;font-size: 48px;&quot;&gt;22&lt;/span&gt;" style="ellipse;whiteSpace=wrap;html=1;aspect=fixed;" vertex="1" parent="1">
          <mxGeometry x="1980" y="710" width="80" height="80" as="geometry" />
        </mxCell>
        <mxCell id="Bg_qymxzV5IfsE4DtpFk-10" value="&lt;span style=&quot;font-size: 48px;&quot;&gt;21&lt;/span&gt;" style="ellipse;whiteSpace=wrap;html=1;aspect=fixed;" vertex="1" parent="1">
          <mxGeometry x="1770" y="1120" width="80" height="80" as="geometry" />
        </mxCell>
        <mxCell id="Bg_qymxzV5IfsE4DtpFk-109" value="&lt;font style=&quot;font-size: 24px;&quot;&gt;1&lt;/font&gt;" style="edgeStyle=orthogonalEdgeStyle;rounded=0;orthogonalLoop=1;jettySize=auto;html=1;" edge="1" parent="1" source="Bg_qymxzV5IfsE4DtpFk-12" target="Bg_qymxzV5IfsE4DtpFk-7">
          <mxGeometry relative="1" as="geometry">
            <Array as="points">
              <mxPoint x="2250" y="920" />
            </Array>
          </mxGeometry>
        </mxCell>
        <mxCell id="Bg_qymxzV5IfsE4DtpFk-11" value="&lt;span style=&quot;font-size: 48px;&quot;&gt;20&lt;/span&gt;" style="ellipse;whiteSpace=wrap;html=1;aspect=fixed;" vertex="1" parent="1">
          <mxGeometry x="1770" y="1000" width="80" height="80" as="geometry" />
        </mxCell>
        <mxCell id="Bg_qymxzV5IfsE4DtpFk-134" value="&lt;font style=&quot;font-size: 24px;&quot;&gt;1&lt;/font&gt;" style="edgeStyle=orthogonalEdgeStyle;rounded=0;orthogonalLoop=1;jettySize=auto;html=1;exitX=1;exitY=0.5;exitDx=0;exitDy=0;entryX=0;entryY=0.5;entryDx=0;entryDy=0;" edge="1" parent="1" source="Bg_qymxzV5IfsE4DtpFk-13" target="Bg_qymxzV5IfsE4DtpFk-9">
          <mxGeometry relative="1" as="geometry">
            <Array as="points">
              <mxPoint x="1850" y="790" />
              <mxPoint x="1915" y="790" />
              <mxPoint x="1915" y="750" />
            </Array>
          </mxGeometry>
        </mxCell>
        <mxCell id="Bg_qymxzV5IfsE4DtpFk-135" style="edgeStyle=orthogonalEdgeStyle;rounded=0;orthogonalLoop=1;jettySize=auto;html=1;entryX=0;entryY=0.5;entryDx=0;entryDy=0;" edge="1" parent="1" source="Bg_qymxzV5IfsE4DtpFk-13" target="Bg_qymxzV5IfsE4DtpFk-8">
          <mxGeometry relative="1" as="geometry">
            <Array as="points">
              <mxPoint x="1915" y="810" />
              <mxPoint x="1915" y="850" />
            </Array>
          </mxGeometry>
        </mxCell>
        <mxCell id="Bg_qymxzV5IfsE4DtpFk-13" value="&lt;font style=&quot;font-size: 48px;&quot;&gt;18&lt;/font&gt;" style="ellipse;whiteSpace=wrap;html=1;aspect=fixed;" vertex="1" parent="1">
          <mxGeometry x="1770" y="760" width="80" height="80" as="geometry" />
        </mxCell>
        <mxCell id="Bg_qymxzV5IfsE4DtpFk-104" value="&lt;font style=&quot;font-size: 24px;&quot;&gt;1&lt;/font&gt;" style="edgeStyle=orthogonalEdgeStyle;rounded=0;orthogonalLoop=1;jettySize=auto;html=1;entryX=0.5;entryY=0;entryDx=0;entryDy=0;" edge="1" parent="1" source="Bg_qymxzV5IfsE4DtpFk-14" target="Bg_qymxzV5IfsE4DtpFk-7">
          <mxGeometry relative="1" as="geometry" />
        </mxCell>
        <mxCell id="Bg_qymxzV5IfsE4DtpFk-14" value="&lt;span style=&quot;font-size: 48px;&quot;&gt;17&lt;/span&gt;" style="ellipse;whiteSpace=wrap;html=1;aspect=fixed;" vertex="1" parent="1">
          <mxGeometry x="1770" y="650" width="80" height="80" as="geometry" />
        </mxCell>
        <mxCell id="Bg_qymxzV5IfsE4DtpFk-122" value="&lt;font style=&quot;font-size: 24px;&quot;&gt;1&lt;/font&gt;" style="edgeStyle=orthogonalEdgeStyle;rounded=0;orthogonalLoop=1;jettySize=auto;html=1;entryX=0;entryY=0.5;entryDx=0;entryDy=0;" edge="1" parent="1" source="Bg_qymxzV5IfsE4DtpFk-29" target="Bg_qymxzV5IfsE4DtpFk-121">
          <mxGeometry relative="1" as="geometry">
            <Array as="points">
              <mxPoint x="590" y="1160" />
            </Array>
          </mxGeometry>
        </mxCell>
        <mxCell id="Bg_qymxzV5IfsE4DtpFk-29" value="&lt;font style=&quot;font-size: 48px;&quot;&gt;8&lt;/font&gt;" style="ellipse;whiteSpace=wrap;html=1;aspect=fixed;" vertex="1" parent="1">
          <mxGeometry x="550" y="810" width="80" height="80" as="geometry" />
        </mxCell>
        <mxCell id="Bg_qymxzV5IfsE4DtpFk-75" value="&lt;font style=&quot;font-size: 24px;&quot;&gt;1&lt;/font&gt;" style="edgeStyle=orthogonalEdgeStyle;rounded=0;orthogonalLoop=1;jettySize=auto;html=1;exitX=1;exitY=0.5;exitDx=0;exitDy=0;entryX=0.5;entryY=1;entryDx=0;entryDy=0;" edge="1" parent="1" source="Bg_qymxzV5IfsE4DtpFk-31" target="Bg_qymxzV5IfsE4DtpFk-36">
          <mxGeometry relative="1" as="geometry">
            <Array as="points">
              <mxPoint x="1540" y="1040" />
            </Array>
          </mxGeometry>
        </mxCell>
        <mxCell id="Bg_qymxzV5IfsE4DtpFk-31" value="&lt;font style=&quot;font-size: 48px;&quot;&gt;13&lt;/font&gt;" style="ellipse;whiteSpace=wrap;html=1;aspect=fixed;" vertex="1" parent="1">
          <mxGeometry x="790" y="1000" width="80" height="80" as="geometry" />
        </mxCell>
        <mxCell id="Bg_qymxzV5IfsE4DtpFk-77" value="&lt;font style=&quot;font-size: 24px;&quot;&gt;1&lt;/font&gt;" style="edgeStyle=orthogonalEdgeStyle;rounded=0;orthogonalLoop=1;jettySize=auto;html=1;" edge="1" parent="1" source="Bg_qymxzV5IfsE4DtpFk-32" target="Bg_qymxzV5IfsE4DtpFk-36">
          <mxGeometry relative="1" as="geometry">
            <Array as="points">
              <mxPoint x="1520" y="920" />
            </Array>
          </mxGeometry>
        </mxCell>
        <mxCell id="Bg_qymxzV5IfsE4DtpFk-32" value="&lt;font style=&quot;font-size: 48px;&quot;&gt;12&lt;/font&gt;" style="ellipse;whiteSpace=wrap;html=1;aspect=fixed;" vertex="1" parent="1">
          <mxGeometry x="790" y="880" width="80" height="80" as="geometry" />
        </mxCell>
        <mxCell id="Bg_qymxzV5IfsE4DtpFk-78" value="&lt;font style=&quot;font-size: 24px;&quot;&gt;1&lt;/font&gt;" style="edgeStyle=orthogonalEdgeStyle;rounded=0;orthogonalLoop=1;jettySize=auto;html=1;" edge="1" parent="1" source="Bg_qymxzV5IfsE4DtpFk-33" target="Bg_qymxzV5IfsE4DtpFk-36">
          <mxGeometry relative="1" as="geometry">
            <Array as="points">
              <mxPoint x="1520" y="800" />
            </Array>
          </mxGeometry>
        </mxCell>
        <mxCell id="Bg_qymxzV5IfsE4DtpFk-33" value="&lt;font style=&quot;font-size: 48px;&quot;&gt;11&lt;/font&gt;" style="ellipse;whiteSpace=wrap;html=1;aspect=fixed;" vertex="1" parent="1">
          <mxGeometry x="790" y="760" width="80" height="80" as="geometry" />
        </mxCell>
        <mxCell id="Bg_qymxzV5IfsE4DtpFk-79" value="&lt;font style=&quot;font-size: 24px;&quot;&gt;1&lt;/font&gt;" style="edgeStyle=orthogonalEdgeStyle;rounded=0;orthogonalLoop=1;jettySize=auto;html=1;" edge="1" parent="1" source="Bg_qymxzV5IfsE4DtpFk-34" target="Bg_qymxzV5IfsE4DtpFk-36">
          <mxGeometry relative="1" as="geometry">
            <mxPoint x="1530" y="790" as="targetPoint" />
            <Array as="points">
              <mxPoint x="1530" y="690" />
            </Array>
          </mxGeometry>
        </mxCell>
        <mxCell id="Bg_qymxzV5IfsE4DtpFk-34" value="&lt;font style=&quot;font-size: 48px;&quot;&gt;10&lt;/font&gt;" style="ellipse;whiteSpace=wrap;html=1;aspect=fixed;" vertex="1" parent="1">
          <mxGeometry x="790" y="650" width="80" height="80" as="geometry" />
        </mxCell>
        <mxCell id="Bg_qymxzV5IfsE4DtpFk-35" value="&lt;font style=&quot;font-size: 48px;&quot;&gt;9&lt;/font&gt;" style="ellipse;whiteSpace=wrap;html=1;aspect=fixed;" vertex="1" parent="1">
          <mxGeometry x="790" y="540" width="80" height="80" as="geometry" />
        </mxCell>
        <mxCell id="Bg_qymxzV5IfsE4DtpFk-127" value="&lt;font style=&quot;font-size: 24px;&quot;&gt;1&lt;/font&gt;" style="edgeStyle=orthogonalEdgeStyle;rounded=0;orthogonalLoop=1;jettySize=auto;html=1;entryX=0;entryY=0.5;entryDx=0;entryDy=0;" edge="1" parent="1" source="Bg_qymxzV5IfsE4DtpFk-36" target="Bg_qymxzV5IfsE4DtpFk-6">
          <mxGeometry relative="1" as="geometry">
            <Array as="points">
              <mxPoint x="1568" y="580" />
            </Array>
          </mxGeometry>
        </mxCell>
        <mxCell id="Bg_qymxzV5IfsE4DtpFk-128" value="&lt;font style=&quot;font-size: 24px;&quot;&gt;2&lt;/font&gt;" style="edgeStyle=orthogonalEdgeStyle;rounded=0;orthogonalLoop=1;jettySize=auto;html=1;entryX=0;entryY=0.5;entryDx=0;entryDy=0;exitX=0.939;exitY=0.276;exitDx=0;exitDy=0;exitPerimeter=0;" edge="1" parent="1" source="Bg_qymxzV5IfsE4DtpFk-36" target="Bg_qymxzV5IfsE4DtpFk-14">
          <mxGeometry relative="1" as="geometry">
            <Array as="points">
              <mxPoint x="1575" y="830" />
              <mxPoint x="1610" y="830" />
              <mxPoint x="1610" y="690" />
            </Array>
          </mxGeometry>
        </mxCell>
        <mxCell id="Bg_qymxzV5IfsE4DtpFk-129" value="&lt;font style=&quot;font-size: 24px;&quot;&gt;1&lt;/font&gt;" style="edgeStyle=orthogonalEdgeStyle;rounded=0;orthogonalLoop=1;jettySize=auto;html=1;entryX=0;entryY=0.5;entryDx=0;entryDy=0;" edge="1" parent="1" source="Bg_qymxzV5IfsE4DtpFk-36" target="Bg_qymxzV5IfsE4DtpFk-13">
          <mxGeometry relative="1" as="geometry">
            <Array as="points">
              <mxPoint x="1675" y="840" />
              <mxPoint x="1675" y="800" />
            </Array>
          </mxGeometry>
        </mxCell>
        <mxCell id="Bg_qymxzV5IfsE4DtpFk-130" value="&lt;font style=&quot;font-size: 24px;&quot;&gt;1&lt;/font&gt;" style="edgeStyle=orthogonalEdgeStyle;rounded=0;orthogonalLoop=1;jettySize=auto;html=1;exitX=1;exitY=1;exitDx=0;exitDy=0;entryX=0;entryY=0.5;entryDx=0;entryDy=0;" edge="1" parent="1" source="Bg_qymxzV5IfsE4DtpFk-36" target="Bg_qymxzV5IfsE4DtpFk-12">
          <mxGeometry relative="1" as="geometry">
            <Array as="points">
              <mxPoint x="1568" y="850" />
              <mxPoint x="1675" y="850" />
              <mxPoint x="1675" y="920" />
            </Array>
          </mxGeometry>
        </mxCell>
        <mxCell id="Bg_qymxzV5IfsE4DtpFk-131" value="&lt;font style=&quot;font-size: 24px;&quot;&gt;2&lt;/font&gt;" style="edgeStyle=orthogonalEdgeStyle;rounded=0;orthogonalLoop=1;jettySize=auto;html=1;exitX=1;exitY=1;exitDx=0;exitDy=0;entryX=0;entryY=0.5;entryDx=0;entryDy=0;" edge="1" parent="1" source="Bg_qymxzV5IfsE4DtpFk-36" target="Bg_qymxzV5IfsE4DtpFk-11">
          <mxGeometry relative="1" as="geometry">
            <Array as="points">
              <mxPoint x="1568" y="860" />
              <mxPoint x="1610" y="860" />
              <mxPoint x="1610" y="1040" />
            </Array>
          </mxGeometry>
        </mxCell>
        <mxCell id="Bg_qymxzV5IfsE4DtpFk-132" value="&lt;font style=&quot;font-size: 24px;&quot;&gt;2&lt;/font&gt;" style="edgeStyle=orthogonalEdgeStyle;rounded=0;orthogonalLoop=1;jettySize=auto;html=1;exitX=1;exitY=1;exitDx=0;exitDy=0;entryX=0;entryY=0.5;entryDx=0;entryDy=0;" edge="1" parent="1" source="Bg_qymxzV5IfsE4DtpFk-36" target="Bg_qymxzV5IfsE4DtpFk-10">
          <mxGeometry relative="1" as="geometry">
            <Array as="points">
              <mxPoint x="1568" y="870" />
              <mxPoint x="1570" y="870" />
              <mxPoint x="1570" y="1160" />
            </Array>
          </mxGeometry>
        </mxCell>
        <mxCell id="Bg_qymxzV5IfsE4DtpFk-36" value="&lt;font style=&quot;font-size: 48px;&quot;&gt;15&lt;/font&gt;" style="ellipse;whiteSpace=wrap;html=1;aspect=fixed;" vertex="1" parent="1">
          <mxGeometry x="1500" y="810" width="80" height="80" as="geometry" />
        </mxCell>
        <mxCell id="Bg_qymxzV5IfsE4DtpFk-116" value="&lt;font style=&quot;font-size: 24px;&quot;&gt;1&lt;/font&gt;" style="edgeStyle=orthogonalEdgeStyle;rounded=0;orthogonalLoop=1;jettySize=auto;html=1;" edge="1" parent="1" source="Bg_qymxzV5IfsE4DtpFk-37" target="Bg_qymxzV5IfsE4DtpFk-29">
          <mxGeometry relative="1" as="geometry">
            <Array as="points">
              <mxPoint x="572" y="1160" />
            </Array>
          </mxGeometry>
        </mxCell>
        <mxCell id="Bg_qymxzV5IfsE4DtpFk-37" value="&lt;font style=&quot;font-size: 48px;&quot;&gt;7&lt;/font&gt;" style="ellipse;whiteSpace=wrap;html=1;aspect=fixed;" vertex="1" parent="1">
          <mxGeometry x="370" y="1120" width="80" height="80" as="geometry" />
        </mxCell>
        <mxCell id="Bg_qymxzV5IfsE4DtpFk-48" value="" style="edgeStyle=orthogonalEdgeStyle;rounded=0;orthogonalLoop=1;jettySize=auto;html=1;" edge="1" parent="1" source="Bg_qymxzV5IfsE4DtpFk-38" target="Bg_qymxzV5IfsE4DtpFk-37">
          <mxGeometry relative="1" as="geometry" />
        </mxCell>
        <mxCell id="Bg_qymxzV5IfsE4DtpFk-38" value="&lt;font style=&quot;font-size: 48px;&quot;&gt;6&lt;/font&gt;" style="ellipse;whiteSpace=wrap;html=1;aspect=fixed;" vertex="1" parent="1">
          <mxGeometry x="370" y="960" width="80" height="80" as="geometry" />
        </mxCell>
        <mxCell id="Bg_qymxzV5IfsE4DtpFk-45" value="" style="edgeStyle=orthogonalEdgeStyle;rounded=0;orthogonalLoop=1;jettySize=auto;html=1;" edge="1" parent="1" source="Bg_qymxzV5IfsE4DtpFk-39" target="Bg_qymxzV5IfsE4DtpFk-40">
          <mxGeometry relative="1" as="geometry" />
        </mxCell>
        <mxCell id="Bg_qymxzV5IfsE4DtpFk-47" value="" style="edgeStyle=orthogonalEdgeStyle;rounded=0;orthogonalLoop=1;jettySize=auto;html=1;" edge="1" parent="1" source="Bg_qymxzV5IfsE4DtpFk-39" target="Bg_qymxzV5IfsE4DtpFk-38">
          <mxGeometry relative="1" as="geometry" />
        </mxCell>
        <mxCell id="Bg_qymxzV5IfsE4DtpFk-49" value="&lt;font style=&quot;font-size: 24px;&quot;&gt;1&lt;/font&gt;" style="edgeStyle=orthogonalEdgeStyle;rounded=0;orthogonalLoop=1;jettySize=auto;html=1;" edge="1" parent="1" source="Bg_qymxzV5IfsE4DtpFk-39" target="Bg_qymxzV5IfsE4DtpFk-29">
          <mxGeometry relative="1" as="geometry" />
        </mxCell>
        <mxCell id="Bg_qymxzV5IfsE4DtpFk-39" value="&lt;font style=&quot;font-size: 48px;&quot;&gt;5&lt;/font&gt;" style="ellipse;whiteSpace=wrap;html=1;aspect=fixed;" vertex="1" parent="1">
          <mxGeometry x="370" y="810" width="80" height="80" as="geometry" />
        </mxCell>
        <mxCell id="Bg_qymxzV5IfsE4DtpFk-46" value="" style="edgeStyle=orthogonalEdgeStyle;rounded=0;orthogonalLoop=1;jettySize=auto;html=1;" edge="1" parent="1" source="Bg_qymxzV5IfsE4DtpFk-40" target="Bg_qymxzV5IfsE4DtpFk-41">
          <mxGeometry relative="1" as="geometry" />
        </mxCell>
        <mxCell id="Bg_qymxzV5IfsE4DtpFk-40" value="&lt;font style=&quot;font-size: 48px;&quot;&gt;4&lt;/font&gt;" style="ellipse;whiteSpace=wrap;html=1;aspect=fixed;" vertex="1" parent="1">
          <mxGeometry x="370" y="670" width="80" height="80" as="geometry" />
        </mxCell>
        <mxCell id="Bg_qymxzV5IfsE4DtpFk-114" value="&lt;font style=&quot;font-size: 24px;&quot;&gt;1&lt;/font&gt;" style="edgeStyle=orthogonalEdgeStyle;rounded=0;orthogonalLoop=1;jettySize=auto;html=1;entryX=0;entryY=0;entryDx=0;entryDy=0;" edge="1" parent="1" source="Bg_qymxzV5IfsE4DtpFk-41" target="Bg_qymxzV5IfsE4DtpFk-29">
          <mxGeometry relative="1" as="geometry" />
        </mxCell>
        <mxCell id="Bg_qymxzV5IfsE4DtpFk-41" value="&lt;font style=&quot;font-size: 48px;&quot;&gt;3&lt;/font&gt;" style="ellipse;whiteSpace=wrap;html=1;aspect=fixed;" vertex="1" parent="1">
          <mxGeometry x="370" y="540" width="80" height="80" as="geometry" />
        </mxCell>
        <mxCell id="Bg_qymxzV5IfsE4DtpFk-50" value="&lt;font style=&quot;font-size: 24px;&quot;&gt;1&lt;/font&gt;" style="edgeStyle=orthogonalEdgeStyle;rounded=0;orthogonalLoop=1;jettySize=auto;html=1;exitX=0.5;exitY=0;exitDx=0;exitDy=0;" edge="1" parent="1" source="Bg_qymxzV5IfsE4DtpFk-29">
          <mxGeometry relative="1" as="geometry">
            <mxPoint x="580" y="804.1600000000001" as="sourcePoint" />
            <mxPoint x="790" y="580" as="targetPoint" />
            <Array as="points">
              <mxPoint x="590" y="580" />
            </Array>
          </mxGeometry>
        </mxCell>
        <mxCell id="Bg_qymxzV5IfsE4DtpFk-51" value="&lt;font style=&quot;font-size: 24px;&quot;&gt;1&lt;/font&gt;" style="edgeStyle=orthogonalEdgeStyle;rounded=0;orthogonalLoop=1;jettySize=auto;html=1;entryX=0;entryY=0.5;entryDx=0;entryDy=0;exitX=1;exitY=0.5;exitDx=0;exitDy=0;" edge="1" parent="1" source="Bg_qymxzV5IfsE4DtpFk-29" target="Bg_qymxzV5IfsE4DtpFk-33">
          <mxGeometry relative="1" as="geometry">
            <mxPoint x="610" y="808.33" as="sourcePoint" />
            <mxPoint x="710" y="808.33" as="targetPoint" />
            <Array as="points">
              <mxPoint x="630" y="800" />
            </Array>
          </mxGeometry>
        </mxCell>
        <mxCell id="Bg_qymxzV5IfsE4DtpFk-52" value="&lt;font style=&quot;font-size: 24px;&quot;&gt;1&lt;/font&gt;" style="edgeStyle=orthogonalEdgeStyle;rounded=0;orthogonalLoop=1;jettySize=auto;html=1;entryX=0;entryY=0.5;entryDx=0;entryDy=0;exitX=0.995;exitY=0.644;exitDx=0;exitDy=0;exitPerimeter=0;" edge="1" parent="1" source="Bg_qymxzV5IfsE4DtpFk-29" target="Bg_qymxzV5IfsE4DtpFk-32">
          <mxGeometry relative="1" as="geometry">
            <mxPoint x="630" y="840" as="sourcePoint" />
            <mxPoint x="730" y="840" as="targetPoint" />
            <Array as="points">
              <mxPoint x="630" y="920" />
            </Array>
          </mxGeometry>
        </mxCell>
        <mxCell id="Bg_qymxzV5IfsE4DtpFk-53" value="&lt;font style=&quot;font-size: 24px;&quot;&gt;1&lt;/font&gt;" style="edgeStyle=orthogonalEdgeStyle;rounded=0;orthogonalLoop=1;jettySize=auto;html=1;" edge="1" parent="1" source="Bg_qymxzV5IfsE4DtpFk-29" target="Bg_qymxzV5IfsE4DtpFk-31">
          <mxGeometry relative="1" as="geometry">
            <mxPoint x="630" y="860" as="sourcePoint" />
            <mxPoint x="730" y="860" as="targetPoint" />
            <Array as="points">
              <mxPoint x="610" y="1040" />
            </Array>
          </mxGeometry>
        </mxCell>
        <mxCell id="Bg_qymxzV5IfsE4DtpFk-54" value="&lt;font style=&quot;font-size: 24px;&quot;&gt;1&lt;/font&gt;" style="edgeStyle=orthogonalEdgeStyle;rounded=0;orthogonalLoop=1;jettySize=auto;html=1;" edge="1" parent="1" source="Bg_qymxzV5IfsE4DtpFk-29" target="Bg_qymxzV5IfsE4DtpFk-34">
          <mxGeometry relative="1" as="geometry">
            <mxPoint x="600" y="810" as="sourcePoint" />
            <mxPoint x="700" y="810" as="targetPoint" />
            <Array as="points">
              <mxPoint x="610" y="690" />
            </Array>
          </mxGeometry>
        </mxCell>
        <mxCell id="Bg_qymxzV5IfsE4DtpFk-80" value="&lt;font style=&quot;font-size: 24px;&quot;&gt;1&lt;/font&gt;" style="edgeStyle=orthogonalEdgeStyle;rounded=0;orthogonalLoop=1;jettySize=auto;html=1;" edge="1" parent="1" source="Bg_qymxzV5IfsE4DtpFk-35" target="Bg_qymxzV5IfsE4DtpFk-36">
          <mxGeometry relative="1" as="geometry">
            <Array as="points">
              <mxPoint x="1550" y="580" />
            </Array>
          </mxGeometry>
        </mxCell>
        <mxCell id="Bg_qymxzV5IfsE4DtpFk-103" value="&lt;font style=&quot;font-size: 24px;&quot;&gt;1&lt;/font&gt;" style="edgeStyle=orthogonalEdgeStyle;rounded=0;orthogonalLoop=1;jettySize=auto;html=1;entryX=0.675;entryY=0.029;entryDx=0;entryDy=0;entryPerimeter=0;" edge="1" parent="1" source="Bg_qymxzV5IfsE4DtpFk-6" target="Bg_qymxzV5IfsE4DtpFk-7">
          <mxGeometry relative="1" as="geometry" />
        </mxCell>
        <mxCell id="Bg_qymxzV5IfsE4DtpFk-110" value="&lt;font style=&quot;font-size: 24px;&quot;&gt;1&lt;/font&gt;" style="edgeStyle=orthogonalEdgeStyle;rounded=0;orthogonalLoop=1;jettySize=auto;html=1;" edge="1" parent="1" source="Bg_qymxzV5IfsE4DtpFk-10" target="Bg_qymxzV5IfsE4DtpFk-7">
          <mxGeometry relative="1" as="geometry">
            <Array as="points">
              <mxPoint x="2300" y="1160" />
            </Array>
          </mxGeometry>
        </mxCell>
        <mxCell id="Bg_qymxzV5IfsE4DtpFk-113" value="&lt;font style=&quot;font-size: 24px;&quot;&gt;1&lt;/font&gt;" style="edgeStyle=orthogonalEdgeStyle;rounded=0;orthogonalLoop=1;jettySize=auto;html=1;entryX=0;entryY=0.375;entryDx=0;entryDy=0;entryPerimeter=0;" edge="1" parent="1" source="Bg_qymxzV5IfsE4DtpFk-40" target="Bg_qymxzV5IfsE4DtpFk-29">
          <mxGeometry relative="1" as="geometry" />
        </mxCell>
        <mxCell id="Bg_qymxzV5IfsE4DtpFk-115" value="&lt;font style=&quot;font-size: 24px;&quot;&gt;1&lt;/font&gt;" style="edgeStyle=orthogonalEdgeStyle;rounded=0;orthogonalLoop=1;jettySize=auto;html=1;entryX=-0.01;entryY=0.63;entryDx=0;entryDy=0;entryPerimeter=0;" edge="1" parent="1" source="Bg_qymxzV5IfsE4DtpFk-38" target="Bg_qymxzV5IfsE4DtpFk-29">
          <mxGeometry relative="1" as="geometry" />
        </mxCell>
        <mxCell id="Bg_qymxzV5IfsE4DtpFk-121" value="&lt;font style=&quot;font-size: 48px;&quot;&gt;14&lt;/font&gt;" style="ellipse;whiteSpace=wrap;html=1;aspect=fixed;" vertex="1" parent="1">
          <mxGeometry x="790" y="1120" width="80" height="80" as="geometry" />
        </mxCell>
        <mxCell id="Bg_qymxzV5IfsE4DtpFk-124" value="&lt;font style=&quot;font-size: 24px;&quot;&gt;1&lt;/font&gt;" style="edgeStyle=orthogonalEdgeStyle;rounded=0;orthogonalLoop=1;jettySize=auto;html=1;entryX=0.75;entryY=0.962;entryDx=0;entryDy=0;entryPerimeter=0;" edge="1" parent="1" source="Bg_qymxzV5IfsE4DtpFk-121" target="Bg_qymxzV5IfsE4DtpFk-36">
          <mxGeometry relative="1" as="geometry" />
        </mxCell>
        <mxCell id="Bg_qymxzV5IfsE4DtpFk-12" value="&lt;span style=&quot;font-size: 48px;&quot;&gt;19&lt;/span&gt;" style="ellipse;whiteSpace=wrap;html=1;aspect=fixed;" vertex="1" parent="1">
          <mxGeometry x="1770" y="880" width="80" height="80" as="geometry" />
        </mxCell>
        <mxCell id="Bg_qymxzV5IfsE4DtpFk-138" value="&lt;font style=&quot;font-size: 24px;&quot;&gt;1&lt;/font&gt;" style="edgeStyle=orthogonalEdgeStyle;rounded=0;orthogonalLoop=1;jettySize=auto;html=1;" edge="1" parent="1" source="Bg_qymxzV5IfsE4DtpFk-11" target="Bg_qymxzV5IfsE4DtpFk-7">
          <mxGeometry relative="1" as="geometry">
            <Array as="points">
              <mxPoint x="2280" y="1040" />
            </Array>
          </mxGeometry>
        </mxCell>
        <mxCell id="Bg_qymxzV5IfsE4DtpFk-139" value="&lt;span style=&quot;font-size: 48px;&quot;&gt;26&lt;/span&gt;" style="ellipse;whiteSpace=wrap;html=1;aspect=fixed;" vertex="1" parent="1">
          <mxGeometry x="2600" y="800" width="80" height="80" as="geometry" />
        </mxCell>
      </root>
    </mxGraphModel>
  </diagram>
</mxfile>
